<?xml version="1.0" encoding="utf-8"?>
<!-- Generator: Adobe Illustrator 27.5.0, SVG Export Plug-In . SVG Version: 6.00 Build 0)  -->
<svg version="1.1" id="Tryb_izolacji" xmlns="http://www.w3.org/2000/svg" xmlns:xlink="http://www.w3.org/1999/xlink" x="0px"
	 y="0px" viewBox="0 0 464.3 469.1" style="enable-background:new 0 0 464.3 469.1;" xml:space="preserve">
<style type="text/css">
	.st0{opacity:0.6;}
	.st1{clip-path:url(#SVGID_00000021808922197847851800000009832165283006478000_);fill:#FFFFFF;}
	.st2{fill:#016A4A;}
</style>
<g class="st0">
	<g>
		<defs>
			<rect id="SVGID_1_" x="0" y="3.3" width="464.3" height="464.1"/>
		</defs>
		<clipPath id="SVGID_00000087387948067494864150000003758702168956523199_">
			<use xlink:href="#SVGID_1_"  style="overflow:visible;"/>
		</clipPath>
		<path style="clip-path:url(#SVGID_00000087387948067494864150000003758702168956523199_);fill:#FFFFFF;" d="M464.3,235.3
			c0,128.2-103.9,232.1-232.2,232.1S0,363.5,0,235.3C0,107.2,104,3.3,232.2,3.3S464.3,107.2,464.3,235.3"/>
	</g>
</g>
<path class="st2" d="M232.2,0.3C104.2,0.3,0,105.5,0,234.9s104.2,234.6,232.2,234.6s232.2-105.2,232.2-234.6S360.2,0.3,232.2,0.3
	 M232.2,461.7C108.4,461.7,7.7,359.9,7.7,234.9S108.4,8.1,232.2,8.1s224.5,101.7,224.5,226.8S355.9,461.7,232.2,461.7"/>
<path class="st2" d="M362.2,234.9c0-72.4-58.3-131.3-130-131.3s-130,58.9-130,131.3c0,72.4,58.3,131.3,130,131.3
	S362.2,307.3,362.2,234.9 M232.2,358.4c-67.4,0-122.3-55.4-122.3-123.5c0-68.1,54.9-123.5,122.3-123.5s122.3,55.4,122.3,123.5
	C354.4,303,299.6,358.4,232.2,358.4"/>
<g>
	<polygon class="st2" points="321,199.1 296.2,261.8 305.1,261.8 329.6,199.1 	"/>
	<path class="st2" d="M326.2,228.2c-6.6,0-11.2,4.6-11.2,11.2v12.8c0,6.2,4.6,10.5,11.3,10.5c6.3,0,11.2-4.7,11.2-10.6V239
		C337.4,232.7,332.8,228.2,326.2,228.2 M327.3,238.4v13.9c0,1.3-0.6,1.3-1.1,1.3c-0.6,0-1.1-0.1-1.1-1.3v-13.9
		c0-0.4,0.1-1.2,1.1-1.2C327.1,237.2,327.3,238,327.3,238.4"/>
	<path class="st2" d="M310.5,222.3v-13.2c0-6.5-4.5-10.8-11.3-10.8c-6.7,0-11.2,4.3-11.2,10.8v13.1c0,6.2,4.6,10.5,11.3,10.5
		C305.7,232.8,310.5,228.3,310.5,222.3 M298.2,222.5v-13.9c0-1.2,0.7-1.2,1.1-1.2c1,0,1.2,0.7,1.2,1.2v13.8c0,1.3-0.7,1.3-1.1,1.3
		C298.6,223.7,298.2,223.5,298.2,222.5"/>
	<path class="st2" d="M183.8,177c-19.9,0-32.7,12-32.7,30.5v34.6c0,15.4,9.1,24.5,24.5,24.5c7.4,0,14.1-3.3,18.9-9.3v34.7
		c0,7.8-4.3,12.7-11.2,12.7c-6.6,0-10.6-4.4-10.6-11.9v-9.6h-20.4v11.4c0,17.6,12.3,28.9,31.4,28.9c19.9,0,32.7-13.4,32.7-34.3
		v-80.8C216.4,189.4,203.6,177,183.8,177 M172.1,207.1c0-5.7,2.9-12.3,11.2-12.3c8.2,0,11.2,6.5,11.2,12.1v31.2
		c0,6.9-5.5,12.7-12,12.7c-6.4,0-10.4-4.2-10.4-10.9V207.1z"/>
</g>
<g>
	<g>
		<path class="st2" d="M123.9,125.4c-2,2-4,3.3-6,3.9s-4.1,0.5-6.2-0.3c-2.1-0.8-4.4-2.3-6.8-4.6l5.1-6.8c1.4,1.3,2.6,2.3,3.6,2.9
			s2,0.9,2.7,0.9c0.8,0,1.4-0.3,2-0.9c0.7-0.7,1-1.4,0.7-2.2c-0.3-0.7-0.7-1.3-1.2-1.9c-1.3-1.3-2.7-2.1-4.2-2.4
			c-1.5-0.3-3.3-0.3-5.2-0.2l-5.1,0.3c-2.2,0.2-4.4,0-6.5-0.5c-2.1-0.5-4.1-1.7-6-3.6c-2.7-2.7-3.9-5.5-3.7-8.5
			c0.2-3,1.6-5.8,4.4-8.6c1.7-1.7,3.3-2.7,4.9-3.2c1.6-0.4,3.1-0.5,4.6-0.1c1.5,0.4,2.8,1,4,1.8c1.2,0.8,2.3,1.7,3.3,2.6l-5.3,6.7
			c-1-0.9-1.8-1.7-2.6-2.3c-0.8-0.6-1.5-0.9-2.2-1c-0.7-0.1-1.3,0.2-1.9,0.8c-0.7,0.6-0.9,1.4-0.6,2.2s0.6,1.5,1.2,2.1
			c1.2,1.2,2.4,1.9,3.7,2c1.3,0.2,2.8,0.2,4.5,0.1l4.9-0.3c2.5-0.2,5,0,7.4,0.5c2.4,0.5,4.7,1.9,6.9,4.1c1.5,1.5,2.5,3.2,3,5
			s0.5,3.8,0,5.7C126.7,122,125.6,123.8,123.9,125.4z"/>
		<path class="st2" d="M133.5,115.3l-25.5-36.5l8.1-5.6l10.4,14.9l-4.3-19.2l7.9-5.5l4.8,21.2l21.1,15.1l-8.2,5.7L131.1,93l0.2,2
			l10.3,14.7L133.5,115.3z"/>
		<path class="st2" d="M157.6,99.2l-8.6-17.7l-2.3,2.8l-2.3-4.9l2.3-2.8l-8.5-17.5l8.9-4.3l6.5,13.4l3.7-4.7l2.3,4.9l-3.7,4.7
			l7.7,15.9l9.2-4.5l2.9,6L157.6,99.2z"/>
		<path class="st2" d="M176.1,90.1L171.6,45l10.8-3.2l20.5,40.4l-8.7,2.6l-4.1-8.6l-6.3,1.8l1.2,9.5L176.1,90.1z M183,72.1l4.5-1.3
			l-7.2-16L183,72.1z"/>
		<path class="st2" d="M205.2,81.9l-4.5-44.3l11.2-1.1c3.9-0.4,6.9-0.2,9.2,0.5s3.9,2.1,5,4.1c1.1,2,1.8,4.6,2.1,7.9l1.6,16.1
			c0.3,3.3,0.2,6.1-0.5,8.3c-0.7,2.2-2,3.9-4,5.1c-2,1.2-5,2-8.8,2.4L205.2,81.9z M214.3,74.1l1.5-0.2c1.5-0.2,2.6-0.5,3.2-1
			c0.6-0.5,1-1.2,1-2.1c0.1-0.9,0-2-0.1-3.3L218,48.3c-0.1-1.3-0.3-2.4-0.6-3.1c-0.3-0.8-0.8-1.3-1.5-1.6c-0.7-0.3-1.8-0.4-3.2-0.2
			l-1.5,0.1L214.3,74.1z"/>
		<path class="st2" d="M235.5,79.4l3.8-44.4l6.9,0.6l7.3,22.2l1.8-21.4l8.1,0.7l-3.8,44.4l-6.6-0.6l-7.1-23.8l-2,23L235.5,79.4z"/>
		<path class="st2" d="M264.8,82.8l10-43.4l9.6,2.2l-10,43.4L264.8,82.8z"/>
		<path class="st2" d="M279.6,86l16.1-41.5l9.2,3.6l-6.6,17l13.6-14.3l9,3.5l-15,15.8l-0.8,25.9l-9.3-3.6l1.1-20.7l-1.6,1.3
			l-6.5,16.7L279.6,86z"/>
		<path class="st2" d="M316.4,103.8c-2.8-1.8-4.8-3.6-5.8-5.7c-1-2-1.3-4.2-0.9-6.5c0.4-2.3,1.5-4.8,3.1-7.4l8.7-14.1
			c1.6-2.6,3.4-4.6,5.2-6c1.9-1.4,3.9-2.1,6.2-2c2.3,0,4.8,0.9,7.6,2.7c2.9,1.8,4.8,3.7,5.9,5.7c1.1,2,1.4,4.2,1,6.4
			c-0.4,2.3-1.4,4.7-3.1,7.4l-8.7,14.1c-1.6,2.6-3.3,4.6-5.2,6s-4,2.1-6.2,2.1C321.8,106.4,319.2,105.5,316.4,103.8z M320,97.8
			c0.9,0.5,1.6,0.7,2.3,0.5c0.7-0.2,1.3-0.6,1.8-1.2c0.5-0.6,1-1.3,1.5-2L337,76.9c0.5-0.7,0.8-1.5,1.1-2.2c0.3-0.7,0.4-1.5,0.2-2.2
			c-0.1-0.7-0.6-1.3-1.5-1.8c-0.8-0.5-1.6-0.7-2.2-0.5c-0.7,0.2-1.3,0.6-1.8,1.2c-0.5,0.6-1,1.3-1.5,2L320,91.7
			c-0.4,0.7-0.8,1.5-1.1,2.2c-0.3,0.8-0.4,1.5-0.3,2.1C318.7,96.7,319.2,97.3,320,97.8z M339.5,60.8l8.8-7.6L356,58l-11.7,5.8
			L339.5,60.8z"/>
		<path class="st2" d="M334.1,115L361,79.1l6,5.8l-16,20.6L371.3,89l4.7,4.5l-15.2,21l19.8-16.8l6,5.7L351.9,132l-6.2-5.9l15.8-22.1
			l-21.2,17L334.1,115z"/>
	</g>
</g>
<g>
	<g>
		<path class="st2" d="M36,186.8l43.7,8.9l-3,14.7c-0.5,2.6-1.5,4.7-2.8,6.2c-1.3,1.5-3,2.5-5.1,2.9c-2.1,0.4-4.4,0.4-7.1-0.2
			c-3.4-0.7-5.8-1.8-7.4-3.2c-1.6-1.5-2.5-3.2-2.8-5.3c-0.3-2-0.2-4.3,0.3-6.6l0.8-3.9L34,196.4L36,186.8z M59.3,201.5l-0.7,3.2
			c-0.2,1.2-0.2,2.1,0.1,2.8c0.3,0.7,0.9,1.2,1.7,1.6c0.8,0.4,1.9,0.7,3.2,1c1.1,0.2,2.1,0.3,3,0.4c0.9,0,1.6-0.2,2.3-0.7
			c0.6-0.5,1.1-1.4,1.3-2.7l0.6-3.2L59.3,201.5z"/>
		<path class="st2" d="M28.9,235c0.1-3.3,0.7-6,1.9-7.9c1.2-1.9,2.9-3.3,5.1-4.1c2.2-0.8,4.8-1.2,7.9-1.1l16.6,0.3
			c3.1,0.1,5.7,0.5,7.8,1.4c2.1,0.9,3.8,2.3,4.9,4.3c1.1,2,1.6,4.6,1.6,8c-0.1,3.4-0.7,6-1.9,8c-1.2,1.9-2.9,3.3-5.1,4.1
			c-2.2,0.8-4.8,1.2-7.9,1.1l-16.6-0.3c-3-0.1-5.7-0.5-7.8-1.4c-2.2-0.9-3.8-2.3-5-4.3C29.3,241.1,28.8,238.4,28.9,235z M35.8,235.1
			c0,1,0.2,1.8,0.7,2.3c0.5,0.5,1.2,0.8,2,1c0.8,0.2,1.6,0.3,2.5,0.3l21.4,0.4c0.9,0,1.7,0,2.5-0.2c0.8-0.1,1.4-0.4,2-0.9
			c0.5-0.5,0.8-1.2,0.8-2.2c0-1-0.2-1.7-0.7-2.2c-0.5-0.5-1.1-0.8-1.9-1c-0.8-0.2-1.6-0.3-2.5-0.3L41.1,232c-0.8,0-1.7,0-2.5,0.1
			c-0.8,0.1-1.5,0.4-2,0.8C36.1,233.4,35.9,234.1,35.8,235.1z"/>
		<path class="st2" d="M31.4,271.8c-0.5-3.3-0.3-6.1,0.6-8.2c0.9-2.1,2.4-3.8,4.5-4.9c2.1-1.1,4.6-2,7.5-2.4l15.9-2.5
			c3-0.5,5.7-0.5,8-0.1c2.3,0.4,4.2,1.5,5.7,3.3c1.5,1.7,2.5,4.3,3.1,7.6c0.5,3.3,0.4,5.9-0.4,7.9c-0.8,2-2.1,3.5-3.9,4.6
			c-1.8,1.1-3.9,1.8-6.4,2.2l-3.8,0.6l-1.5-9.5l4.4-0.7c0.9-0.1,1.7-0.3,2.5-0.5c0.8-0.2,1.4-0.6,1.9-1.1c0.5-0.5,0.6-1.3,0.4-2.4
			c-0.2-1-0.6-1.7-1.2-2.1c-0.6-0.4-1.3-0.6-2.2-0.6c-0.8,0-1.7,0.1-2.6,0.2l-20.7,3.3c-1,0.2-1.9,0.4-2.7,0.7
			c-0.8,0.3-1.4,0.7-1.8,1.3c-0.4,0.6-0.5,1.3-0.4,2.3c0.2,1,0.5,1.7,1.1,2c0.6,0.4,1.3,0.5,2.2,0.5c0.8,0,1.7-0.1,2.6-0.2l4.6-0.7
			l1.5,9.5l-3.8,0.6c-2.5,0.4-4.8,0.4-6.9,0c-2.1-0.4-3.9-1.5-5.3-3.1C32.9,277.5,32,275,31.4,271.8z"/>
		<path class="st2" d="M36.7,294.3l42-15l3.3,9.3l-17,6.1l2.3,6.5l17-6.1l3.3,9.3l-42,15l-3.3-9.3l18.3-6.5l-2.3-6.5L40,303.6
			L36.7,294.3z"/>
		<path class="st2" d="M56.5,341.3c-1.7-2.9-2.5-5.5-2.5-7.7c0-2.3,0.8-4.3,2.2-6.2c1.5-1.8,3.5-3.5,6.1-5.1l14.3-8.4
			c2.7-1.6,5.1-2.5,7.4-2.9c2.3-0.4,4.4,0,6.4,1.1c2,1.1,3.8,3.1,5.5,6c1.7,2.9,2.6,5.5,2.6,7.8c0,2.3-0.7,4.3-2.2,6.1
			c-1.4,1.8-3.5,3.5-6.1,5.1L76,345.4c-2.6,1.5-5.1,2.5-7.4,2.9c-2.3,0.4-4.5,0-6.5-1.1C60,346.2,58.2,344.2,56.5,341.3z
			 M62.5,337.7c0.5,0.9,1.1,1.4,1.8,1.6c0.7,0.2,1.4,0.1,2.2-0.2c0.8-0.3,1.5-0.6,2.2-1.1l18.5-10.9c0.8-0.4,1.4-0.9,2-1.5
			c0.6-0.5,1-1.1,1.2-1.8c0.2-0.7,0-1.4-0.5-2.3c-0.5-0.8-1.1-1.3-1.8-1.5c-0.7-0.2-1.4-0.1-2.2,0.2c-0.8,0.3-1.5,0.6-2.3,1.1
			l-18.5,10.9c-0.7,0.4-1.4,0.9-2,1.4c-0.6,0.5-1.1,1.1-1.3,1.8C61.8,336.1,62,336.8,62.5,337.7z"/>
		<path class="st2" d="M70.2,361.2l33.7-29.2l7.4,8.5c2.5,2.9,4.2,5.5,4.8,7.8c0.7,2.3,0.5,4.4-0.5,6.4c-1,2-2.7,4.1-5.2,6.3
			l-12.2,10.6c-2.5,2.2-4.9,3.6-7,4.4c-2.2,0.7-4.3,0.6-6.5-0.4c-2.2-1-4.5-2.9-7-5.8L70.2,361.2z M81.8,364.2l1,1.2
			c1,1.1,1.9,1.8,2.6,2c0.8,0.2,1.5,0.1,2.3-0.4c0.8-0.5,1.7-1.1,2.7-2l14.7-12.7c1-0.9,1.7-1.6,2.2-2.3c0.5-0.7,0.6-1.4,0.5-2.1
			c-0.2-0.7-0.7-1.7-1.7-2.8l-1-1.1L81.8,364.2z"/>
		<path class="st2" d="M93.1,386.4l3.8-4.5l28.9-17.4l-7.9-6.7l4.3-5.1l15.3,12.9l-3.6,4.2l-29.3,17.6l8.5,7.2l-4.3,5.1L93.1,386.4z
			"/>
		<path class="st2" d="M115.5,404.4l23.9-37.6l16.9,10.7l-3.6,5.7l-8.6-5.4l-5.9,9.3l6.6,4.2L141,397l-6.5-4.2l-7.1,11.2l8.7,5.5
			l-3.6,5.6L115.5,404.4z"/>
		<path class="st2" d="M140,419.3l17.6-40.9l6.4,2.7l-0.1,23.3l8.5-19.7l7.5,3.2l-17.6,40.9l-6.1-2.6l0.8-24.8l-9.1,21.2L140,419.3z
			"/>
		<path class="st2" d="M172,431.8l11.9-42.9l9.5,2.6l-11.9,42.9L172,431.8z"/>
		<path class="st2" d="M189.2,436.6l14.4-43l11.1,1.5l2.2,45.3l-9-1.2l-0.2-9.5l-6.5-0.9l-2.8,9.1L189.2,436.6z M202.9,423.1
			l4.7,0.6l0-17.5L202.9,423.1z"/>
		<path class="st2" d="M241.4,440.5l-5-44.3l6.9-0.8l11.5,20.3l-2.4-21.3l8.1-0.9l5,44.3l-6.6,0.7l-11.7-21.9l2.6,23L241.4,440.5z"
			/>
		<path class="st2" d="M274.3,436.2l-4.5-45.1l10.8-3.2l20.6,40.4l-8.7,2.6l-4.1-8.6l-6.3,1.9l1.2,9.5L274.3,436.2z M281.3,418.2
			l4.5-1.3l-7.2-16L281.3,418.2z"/>
		<path class="st2" d="M310.2,424.2l-15.5-33.8l-6.1,2.8l-3.1-6.6l21.1-9.7l3.1,6.6l-6,2.8l15.5,33.8L310.2,424.2z"/>
		<path class="st2" d="M343.3,406.8c-2.8,1.9-5.4,2.9-7.6,3.1c-2.2,0.1-4.3-0.5-6.1-1.8c-1.8-1.3-3.6-3.3-5.4-5.9l-17.2-25.5
			l8.1-5.4l18,26.7c0.5,0.8,1.1,1.5,1.7,2.2c0.6,0.7,1.3,1.1,2.1,1.3c0.7,0.2,1.5,0,2.4-0.5c0.9-0.6,1.4-1.3,1.4-2
			c0.1-0.8-0.1-1.5-0.5-2.4c-0.4-0.8-0.9-1.6-1.4-2.4l-18-26.7l8.1-5.5l17.2,25.5c1.7,2.6,2.9,5,3.4,7.2c0.5,2.2,0.3,4.3-0.6,6.3
			C348.1,402.9,346.2,404.9,343.3,406.8z"/>
		<path class="st2" d="M362.5,391.8l-31.3-31.7l8.7-8.6c2.1-2.1,4.2-3.7,6.3-4.8c2-1.1,4.1-1.4,6.2-1.1c2.1,0.4,4.2,1.6,6.4,3.9
			c1.3,1.3,2.3,2.6,3.1,3.8c0.8,1.2,1.3,2.5,1.4,3.8c0.2,1.3,0,2.7-0.6,4.2l19.5,11.1l-7.2,7.1l-17.5-10.8l-2,2l14,14.2L362.5,391.8
			z M351.5,366.7l2-1.9c1-1,1.6-1.9,1.8-2.8c0.2-0.9,0.1-1.8-0.3-2.7c-0.4-0.9-1.1-1.8-2-2.7c-1.3-1.4-2.6-2.2-3.9-2.4
			c-1.2-0.3-2.5,0.3-3.9,1.6l-2.3,2.2L351.5,366.7z"/>
		<path class="st2" d="M387.2,366.4l-31.6-32.5l6.5-9.2l41.2,18.9l-5.2,7.4l-8.5-4.2l-3.8,5.4l6.8,6.7L387.2,366.4z M381.5,348
			l2.7-3.9l-15.6-8.1L381.5,348z"/>
		<path class="st2" d="M407.1,336.5l-39.9-19.8l4.4-8.8l33.9,16.9l4.6-9.2l6,3L407.1,336.5z"/>
		<path class="st2" d="M419,311.3l-42.5-13.4l2.1-6.6l23.2-2.3l-20.5-6.4l2.4-7.8l42.5,13.4l-2,6.3l-24.8,1.8l22,6.9L419,311.3z"/>
		<path class="st2" d="M428.5,277.6l-44.1-6.5l2.9-19.8l6.6,1l-1.5,10.1l10.9,1.6l1.1-7.7l6.7,1l-1.1,7.7l13.2,1.9l1.5-10.2l6.6,1
			L428.5,277.6z"/>
		<path class="st2" d="M432.6,237.2c0,3.1-0.6,5.5-1.9,7.3c-1.3,1.8-3.1,3.1-5.4,3.8c-2.3,0.8-5,1.1-8.1,1.1l-15,0
			c-3.2,0-5.9-0.4-8.2-1.2c-2.3-0.8-4.1-2.2-5.4-4.1c-1.3-2-1.9-4.6-1.9-8c0-3.3,0.5-5.9,1.6-7.8c1.1-1.9,2.6-3.2,4.6-4.1
			c1.9-0.8,4.2-1.2,6.8-1.2l2.9,0l0,9.6l-3.6,0c-1,0-1.8,0.1-2.6,0.2c-0.8,0.1-1.5,0.4-2,0.9c-0.5,0.5-0.7,1.2-0.7,2.2
			c0,1.1,0.3,1.8,0.9,2.3c0.6,0.5,1.3,0.8,2.1,0.9c0.8,0.1,1.7,0.2,2.6,0.2l20.6,0c1,0,1.9-0.1,2.8-0.3c0.9-0.2,1.6-0.6,2.1-1.1
			c0.5-0.5,0.8-1.3,0.8-2.3c0-1-0.3-1.8-0.8-2.4c-0.6-0.5-1.3-0.9-2.1-1.2c-0.9-0.2-1.8-0.3-2.8-0.3l-5.2,0l0,4l-5.8,0l0-12.9
			l23.1,0l0,6.5l-3.7,0.6c1.2,0.6,2.3,1.4,3.1,2.6C432.2,233.7,432.6,235.2,432.6,237.2z"/>
		<path class="st2" d="M428.8,199.9c0.6,3.3,0.6,6-0.2,8.1c-0.8,2.1-2.2,3.8-4.2,5.1c-2,1.3-4.5,2.2-7.5,2.8l-16.2,3.2
			c-3,0.6-5.7,0.7-8,0.3c-2.3-0.4-4.2-1.5-5.7-3.1c-1.5-1.7-2.6-4.2-3.2-7.4c-0.7-3.3-0.6-6,0.2-8.2c0.8-2.1,2.1-3.8,4.1-5.1
			c2-1.2,4.4-2.2,7.5-2.8l16.2-3.2c3-0.6,5.6-0.7,8-0.3c2.3,0.4,4.2,1.5,5.8,3.1C427,194.1,428.1,196.6,428.8,199.9z M421.9,201.3
			c-0.2-1-0.6-1.7-1.2-2.1c-0.6-0.4-1.3-0.5-2.1-0.5c-0.8,0-1.6,0.1-2.5,0.3l-21,4.2c-0.9,0.2-1.7,0.4-2.4,0.7
			c-0.7,0.3-1.3,0.7-1.7,1.3c-0.4,0.6-0.5,1.4-0.3,2.4c0.2,0.9,0.6,1.6,1.2,2c0.6,0.4,1.3,0.5,2.1,0.5c0.8,0,1.6-0.1,2.5-0.3l21-4.2
			c0.8-0.2,1.6-0.4,2.4-0.7c0.8-0.3,1.4-0.7,1.8-1.2C422,203,422.1,202.3,421.9,201.3z"/>
	</g>
</g>
<circle class="st2" cx="390.5" cy="153.1" r="9.7"/>
<g>
	<path class="st2" d="M172,134.3h8.2l13,30.8H184l-2.2-5.5H170l-2.2,5.5h-8.9L172,134.3z M179.4,153.1l-3.4-8.7l-3.5,8.7H179.4z"/>
	<path class="st2" d="M195.1,158.9l15.3-17.2h-14.8v-7.2h26.5v6.2l-15.3,17.2h15.3v7.2h-27V158.9z"/>
	<path class="st2" d="M238.7,134.5h11.8c2.7,0,5.2,0.4,7.3,1.1s3.9,1.8,5.4,3.1c1.5,1.3,2.6,2.9,3.4,4.8c0.8,1.8,1.2,3.9,1.2,6.1
		v0.1c0,2.2-0.4,4.3-1.2,6.1c-0.8,1.9-1.9,3.5-3.4,4.9c-1.5,1.4-3.3,2.4-5.5,3.2c-2.2,0.8-4.6,1.2-7.4,1.2h-11.6V134.5z
		 M250.6,157.6c2.5,0,4.6-0.7,6.1-2c1.5-1.3,2.3-3.2,2.3-5.7v-0.1c0-2.4-0.8-4.3-2.3-5.7c-1.5-1.4-3.6-2-6.1-2h-3.5v15.5H250.6z"/>
	<path class="st2" d="M287.5,165.7c-2.4,0-4.5-0.4-6.5-1.2s-3.7-2-5.2-3.4c-1.5-1.4-2.6-3.1-3.4-5s-1.2-4-1.2-6.2v-0.1
		c0-2.2,0.4-4.2,1.2-6.2s2-3.6,3.5-5.1s3.2-2.6,5.2-3.4s4.2-1.2,6.6-1.2s4.5,0.4,6.5,1.2s3.7,2,5.2,3.4c1.5,1.4,2.6,3.1,3.4,5
		c0.8,1.9,1.2,4,1.2,6.2v0.1c0,2.2-0.4,4.2-1.2,6.2c-0.8,1.9-2,3.6-3.5,5.1c-1.5,1.4-3.2,2.6-5.2,3.4S289.8,165.7,287.5,165.7z
		 M287.5,158.1c1.2,0,2.2-0.2,3.2-0.7c1-0.4,1.8-1,2.5-1.8c0.7-0.7,1.2-1.6,1.6-2.6c0.4-1,0.6-2,0.6-3.1v-0.1c0-1.1-0.2-2.2-0.6-3.1
		c-0.4-1-0.9-1.9-1.6-2.6c-0.7-0.8-1.5-1.4-2.5-1.8c-1-0.5-2-0.7-3.2-0.7c-1.2,0-2.2,0.2-3.2,0.7c-0.9,0.4-1.8,1-2.5,1.8
		s-1.2,1.6-1.6,2.6c-0.4,1-0.5,2-0.5,3.1v0.1c0,1.1,0.2,2.2,0.6,3.1c0.4,1,0.9,1.9,1.6,2.6c0.7,0.8,1.5,1.4,2.5,1.8
		C285.3,157.8,286.4,158.1,287.5,158.1z"/>
</g>
<g>
	<path class="st2" d="M204.8,122.9h8.6v8.5h-8.6V122.9z"/>
</g>
<g>
	<path class="st2" d="M258.6,201.2l-34,0.1v-22.8h55v22.9l-29.9,121.6h-22.2"/>
</g>
</svg>
